<svg xmlns="http://www.w3.org/2000/svg" xmlns:xlink="http://www.w3.org/1999/xlink" width="1919.5" height="865.988" viewBox="0 0 1919.5 865.988">
  <defs>
    <linearGradient id="linear-gradient" x2="0.898" y2="0.901" gradientUnits="objectBoundingBox">
      <stop offset="0" stop-color="#5a67ff"/>
      <stop offset="1" stop-color="#9b2bcc"/>
    </linearGradient>
    <filter id="Rectangle_1" x="165.261" y="484.016" width="290" height="74" filterUnits="userSpaceOnUse">
      <feOffset dy="3" input="SourceAlpha"/>
      <feGaussianBlur stdDeviation="3" result="blur"/>
      <feFlood flood-opacity="0.161"/>
      <feComposite operator="in" in2="blur"/>
      <feComposite in="SourceGraphic"/>
    </filter>
  </defs>
  <g id="Hero" transform="translate(0 0)">
    <g id="Background">
      <path id="Path_36" data-name="Path 36" d="M.533,666.9c5.332-.8,10.8-2.7,16.394-3.8a393.41,393.41,0,0,1,59.58-7.5,410.057,410.057,0,0,1,93.3,5.9c53.448,9.5,95.434,34.2,146.217,48.2,48.117,13.3,100.9,14.7,151.681,9.8,65.977-6.3,129.289-22.9,193.934-34,67.31-11.5,135.554-20.3,204.463-24.1,101.432-5.5,207-.6,303.5,24.8,88.9,23.4,168.209,59.9,250.714,93.4,155.68,63.1,326.155,90.1,499.163,51.5V225.6c0-72.9.079-164.515-.055-242.615H.079L0,664A19.45,19.45,0,0,0,.533,666.9Z" transform="translate(0 17.015)" fill="url(#linear-gradient)"/>
      <path id="Path_141" data-name="Path 141" d="M-709.378,299.57c-112.235-57.134-219.251-118.191-342.758-161.621-134.059-47.141-285.337-66.027-432.753-69.6-100.164-2.333-200.377,2.549-299.79,11.392-95.486,8.573-190.161,25.15-286.6,26.717-74.24,1.278-150.089-6.665-216.805-31.078-17.579-6.418-34.23-13.726-50.495-21.386H-474.572c.025,14.458.042,29.383.054,44.563V393.109C-556.033,369.446-634.5,337.625-709.378,299.57Z" transform="translate(2394 -54)" fill="#fff" opacity="0.027"/>
      <path id="Path_140" data-name="Path 140" d="M-707.056,299.57c-111.126-57.134-217.083-118.191-339.369-161.621-132.733-47.141-282.515-66.027-428.474-69.6-99.174-2.333-198.4,2.549-296.826,11.392-94.542,8.573-188.28,25.15-283.766,26.717C-2129,107.742-2204.1,99.8-2270.152,75.386c-44.281-16.329-82.634-38.423-123.79-57.389l0-17H-474.573c.026,15.364.044,31.255.056,47.42q0,8.312,0,16.362V393.109C-555.227,369.446-632.919,337.625-707.056,299.57Z" transform="translate(2394 -1)" fill="#fff" opacity="0.027"/>
      <path id="Path_16" data-name="Path 16" d="M1919.4,196.7v12.8c-173.143,38.6-343.62,11.6-499.169-51.5-82.506-33.4-161.813-70-250.717-93.4-96.5-25.3-202.067-30.3-303.633-24.8C797.1,43.6,728.859,52.5,661.548,63.9c-64.645,11-127.958,27.6-193.936,34-50.783,4.9-103.566,3.5-151.683-9.8-50.783-14-92.769-38.7-146.218-48.2a420.782,420.782,0,0,0-93.3-5.9,393.419,393.419,0,0,0-59.58,7.5c-5.465,1.1-11.063,3-16.395,3.8A22.131,22.131,0,0,0-.1,42.4V2.4C8.3,1.6,16.561,1,24.825.5a440.464,440.464,0,0,1,98.767,6.3C180.107,16.9,224.626,43,278.341,57.9c50.917,14,106.765,15.5,160.48,10.4,69.844-6.7,136.888-24.3,205.266-36C715.264,20.1,787.507,10.8,860.416,6.8c107.431-6,219.261-.7,321.361,26.2,94.1,24.8,178.074,63.4,265.379,98.8C1594.974,191.8,1755.587,220.9,1919.4,196.7Z" transform="translate(0.1 638.034)" fill="#fff" opacity="0.08"/>
    </g>
    <g id="Download_Button" data-name="Download Button" transform="translate(-48.74 0.015)">
      <g transform="matrix(1, 0, 0, 1, 48.74, -0.02)" filter="url(#Rectangle_1)">
        <rect id="Rectangle_1-2" data-name="Rectangle 1" width="272" height="56" rx="28" transform="translate(174.26 490.02)" fill="#ffca38"/>
      </g>
      <text id="SIGN_UP" data-name="SIGN UP" transform="translate(359 525)" fill="#ad7200" font-size="16" font-family="Helvetica"><tspan x="-32.895" y="0">SIGN UP</tspan></text>
    </g>
    <g id="Text" transform="translate(163.935 208.015)">
      <text id="Take_control_of_your_recurring_payments_and_subscriptions." data-name="Take control of your
recurring payments
and subscriptions." transform="translate(1 82)" fill="#fff" font-size="53" font-family="Helvetica"><tspan x="0" y="0">Take control of your</tspan><tspan x="0" y="70">recurring payments</tspan><tspan x="0" y="140">and subscriptions.</tspan></text>
      <line id="Line_7" data-name="Line 7" x2="297" fill="none" stroke="#65ccb7" stroke-width="2"/>
    </g>
    <g id="Navigation" transform="translate(174.261 22.015)">
      <text id="HOME" transform="translate(496.995 22)" fill="#fff" font-size="13" font-family="Helvetica"><tspan x="0" y="0">HOME</tspan></text>
      <text id="FEATURES" transform="translate(613.353 23)" fill="#fff" font-size="13" font-family="Helvetica"><tspan x="0" y="0">FEATURES</tspan></text>
      <text id="PRIVACY" transform="translate(758.399 23)" fill="#fff" font-size="13" font-family="Helvetica"><tspan x="0" y="0">PRIVACY</tspan></text>
      <text id="SECURITY" transform="translate(891.846 23)" fill="#fff" font-size="13" font-family="Helvetica"><tspan x="0" y="0">SECURITY</tspan></text>
      <g id="Group_4" data-name="Group 4" transform="translate(1320.749)">
        <g id="Rectangle_15" data-name="Rectangle 15" fill="none" stroke="#fff" stroke-width="1" opacity="0.5">
          <rect width="132" height="36" rx="18" stroke="none"/>
          <rect x="0.5" y="0.5" width="131" height="35" rx="17.5" fill="none"/>
        </g>
        <text id="LOGIN" transform="translate(66 23)" fill="#fff" font-size="13" font-family="Helvetica"><tspan x="-20.227" y="0">LOGIN</tspan></text>
      </g>
      <g id="Group_54" data-name="Group 54" transform="translate(0 5)">
        <text id="RECRRRED" transform="translate(125.144 22)" fill="#fff" stroke="#fff" stroke-width="1" font-size="22" font-family="CenturyGothic-Italic, Century Gothic" font-style="italic" letter-spacing="0.1em"><tspan x="-63.328" y="0">RECRRRED</tspan></text>
        <path id="Path_24" data-name="Path 24" d="M346.6,323.87a6.7,6.7,0,0,1,3.7-.4,9.482,9.482,0,0,1,3.6,1.514c1.046.7,1.936,1.457,2.727,2.093a11.3,11.3,0,0,0,2.152,1.438,5.172,5.172,0,0,0,.973.365,5.592,5.592,0,0,0,1.033.2c.092.008.184.016.276.029l.29.011c.194.017.388,0,.582,0s.373-.031.557-.048c.174-.035.355-.051.518-.1a4.806,4.806,0,0,0,.963-.34,5.173,5.173,0,0,0,.95-.564,19.555,19.555,0,0,0,2.1-1.9,21.647,21.647,0,0,1,2.785-2.467,10.8,10.8,0,0,1,1.843-1.068,8.983,8.983,0,0,1,2.073-.674,10.646,10.646,0,0,1,1.057-.161c.348-.025.7-.051,1.038-.049s.678,0,1.014.041l.5.051.509.084a9.381,9.381,0,0,1,3.829,1.563,12.5,12.5,0,0,1,2.693,2.637c.72.909,1.32,1.8,1.968,2.586a10.831,10.831,0,0,0,1.017,1.1,7.156,7.156,0,0,0,1.17.916,8.615,8.615,0,0,0,2.927,1.132h0a.169.169,0,0,1,0,.332,8.261,8.261,0,0,1-1.722.152,7.533,7.533,0,0,1-.89-.058,8.32,8.32,0,0,1-.888-.178,9.648,9.648,0,0,1-3.26-1.615c-.966-.7-1.814-1.469-2.622-2.134a13.993,13.993,0,0,0-1.2-.9,6.978,6.978,0,0,0-1.165-.655,5.705,5.705,0,0,0-1.163-.375c-.191-.053-.4-.065-.592-.1-.207-.007-.4-.041-.612-.031a7.112,7.112,0,0,0-2.415.359,5.664,5.664,0,0,0-1.938,1.164,22.481,22.481,0,0,0-1.968,2.079,19.774,19.774,0,0,1-2.65,2.643,10.312,10.312,0,0,1-3.939,2c-.365.105-.729.161-1.094.229-.361.047-.726.094-1.081.113s-.709.036-1.063.019l-.532-.017-.543-.057a9.59,9.59,0,0,1-4.191-1.506,12.058,12.058,0,0,1-2.9-2.75c-.737-.938-1.3-1.841-1.863-2.627a10.676,10.676,0,0,0-1.844-2.123A10.531,10.531,0,0,0,346.6,324.2l0,0a.18.18,0,0,1,0-.331Z" transform="translate(-346.485 -312.236)" fill="#fff"/>
      </g>
      <text id="CONTACT" transform="translate(1034.966 23)" fill="#fff" font-size="13" font-family="Helvetica"><tspan x="0" y="0">CONTACT</tspan></text>
    </g>
  </g>
</svg>
